<svg width="163" height="41" viewBox="0 0 163 41" fill="none" xmlns="http://www.w3.org/2000/svg">
<path d="M45.0503 11.8751H52.6724C57.5318 11.8751 61.546 14.2577 61.546 19.6977V20.8408C61.546 26.3222 57.7918 28.7874 52.8187 28.7874H45.0503V11.8751ZM49.3083 14.9463V25.7024H52.5749C55.3377 25.7024 57.1905 24.1737 57.1905 20.7719V19.8767C57.1905 16.475 55.2402 14.9463 52.4287 14.9463H49.3083ZM63.805 15.1115H67.2179L67.7705 18.2929C68.4205 16.1307 70.0782 14.9738 73.0848 14.9738H74.1412V18.6235H72.386C68.9243 18.6235 68.0792 19.6426 68.0792 22.5348V28.8287H63.87V15.1115H63.805ZM74.9863 22.2456V21.86C74.9863 17.2738 78.448 14.7672 83.161 14.7672C87.9716 14.7672 91.3357 17.2738 91.3357 21.86V22.2456C91.3357 26.7491 88.0691 29.173 83.161 29.173C77.9442 29.1317 74.9863 26.7629 74.9863 22.2456ZM87.029 22.2043V21.86C87.029 19.3121 85.5175 17.7834 83.1123 17.7834C80.7557 17.7834 79.1955 19.1881 79.1955 21.86V22.2043C79.1955 24.6695 80.707 26.0743 83.1123 26.0743C85.5175 26.0329 87.029 24.6695 87.029 22.2043ZM93.546 15.1115H97.0564L97.4627 17.7007C98.3078 15.9654 100.112 14.7672 102.777 14.7672C106.889 14.7672 109.603 17.2738 109.603 21.915V22.3007C109.603 26.8042 106.596 29.1868 102.777 29.1868C100.226 29.1868 98.4703 28.209 97.609 26.6389V33.5664H93.4972L93.546 15.1115ZM105.329 22.2043V21.9013C105.329 19.1744 103.671 17.8247 101.461 17.8247C99.1041 17.8247 97.544 19.3534 97.544 21.9013V22.1629C97.544 24.5869 99.0554 26.1156 101.412 26.1156C103.833 26.0743 105.329 24.7659 105.329 22.2043ZM115.827 26.2946L115.47 28.8012H111.862V10.5254H115.974V17.5355C116.884 15.7451 118.688 14.7672 121.239 14.7672C125.107 14.8086 127.968 17.0672 127.968 21.6121V22.039C127.968 26.5838 125.253 29.1868 121.142 29.1868C118.428 29.1317 116.672 28.0712 115.827 26.2946ZM123.645 22.039V21.6947C123.645 19.1881 122.036 17.7834 119.777 17.7834C117.469 17.7834 115.86 19.3534 115.86 21.736V22.039C115.86 24.5869 117.42 26.0743 119.728 26.0743C122.198 26.0743 123.645 24.7659 123.645 22.039ZM129.771 22.2456V21.86C129.771 17.2738 133.233 14.7672 137.946 14.7672C142.757 14.7672 146.121 17.2738 146.121 21.86V22.2456C146.121 26.7491 142.806 29.173 137.946 29.173C132.729 29.1317 129.771 26.7629 129.771 22.2456ZM141.847 22.2043V21.86C141.847 19.3121 140.335 17.7834 137.93 17.7834C135.573 17.7834 134.013 19.1881 134.013 21.86V22.2043C134.013 24.6695 135.525 26.0743 137.93 26.0743C140.351 26.0329 141.847 24.6695 141.847 22.2043ZM151.63 21.6947L145.958 15.1115H150.818L154.084 19.2295L157.4 15.1115H162.21L156.457 21.6534L162.519 28.8012H157.757L154.052 24.2563L150.444 28.8012H145.471L151.63 21.6947Z" fill="#272D38"/>
<path d="M18.8522 11.8752L9.42611 16.9709L18.8522 22.0666L9.42611 27.1624L0 22.0391L9.42611 16.9433L0 11.8752L9.42611 6.77942L18.8522 11.8752ZM9.37735 28.8012L18.8035 23.7055L28.2296 28.8012L18.8035 33.897L9.37735 28.8012ZM18.8522 22.0391L28.2783 16.9433L18.8522 11.8752L28.2296 6.77942L37.6557 11.8752L28.2296 16.9709L37.6557 22.0666L28.2296 27.1624L18.8522 22.0391Z" fill="#272D38"/>
</svg>
