<svg width="121" height="41" viewBox="0 0 121 41" fill="none" xmlns="http://www.w3.org/2000/svg">
<path d="M37.9251 27.4788L39.3932 24.5709C41.0006 25.5797 43.0973 26.1136 45.1945 26.1136C46.7323 26.1136 47.7107 25.6095 47.7107 24.8381C47.6756 22.7016 38.4494 24.3632 38.3792 18.9917C38.3441 16.2618 41.2102 14.155 45.2646 14.155C47.6756 14.155 50.0875 14.6596 51.7997 15.8171L50.4279 18.787C48.8525 17.9285 46.9067 17.3301 45.0546 17.3301C43.7965 17.3301 42.9575 17.8343 42.9575 18.4875C42.9925 20.5943 52.2895 19.4369 52.3942 24.5709C52.3942 27.3603 49.5978 29.3189 45.6135 29.3189C42.6783 29.3189 39.9871 28.7255 37.9246 27.4788H37.9251ZM96.3831 23.5179C96.0125 24.0759 95.4735 24.5403 94.8212 24.8635C94.169 25.1867 93.427 25.3571 92.6715 25.3571C90.3167 25.3571 88.4079 23.7363 88.4079 21.7369C88.4079 19.7376 90.3167 18.1167 92.6715 18.1167C93.427 18.1168 94.169 18.2871 94.8212 18.6103C95.4735 18.9335 96.0125 19.3979 96.3831 19.9559L100.465 18.036C98.9359 15.7207 96.0197 14.155 92.6715 14.155C87.7398 14.155 83.742 17.5492 83.742 21.7369C83.742 25.9242 87.7398 29.3189 92.6715 29.3189C96.0197 29.3189 98.9359 27.7532 100.465 25.4379L96.3831 23.5179ZM55.0427 29.022H60.1453V7.84351H55.0432L55.0427 29.022ZM103.042 7.84351V29.022H108.144V22.6769L114.19 29.022H120.713L113.024 21.4842L120.153 14.4506H113.911L108.144 20.2983V7.84351H103.042ZM75.8655 14.4515V16.173C75.027 14.9858 72.9649 14.155 70.7981 14.155C66.3245 14.155 62.7948 17.5085 62.7948 21.7221C62.7948 25.9357 66.3245 29.3189 70.7981 29.3189C72.9649 29.3189 75.027 28.488 75.8655 27.3008V29.022H80.9681V14.4515H75.8655ZM75.8655 23.5473C75.1317 24.5858 73.5939 25.3567 71.8817 25.3567C69.5264 25.3567 67.6177 23.7363 67.6177 21.7369C67.6177 19.7376 69.5264 18.1167 71.8817 18.1167C73.5939 18.1167 75.1317 18.9178 75.8655 19.9857V23.5473Z" fill="#272D38"/>
<path d="M10.9783 7.37561C9.32472 7.37561 7.98442 8.51396 7.98442 9.91779C7.98402 10.2513 8.06115 10.5816 8.21139 10.8899C8.36163 11.1981 8.58205 11.4783 8.86006 11.7143C9.13806 11.9504 9.46822 12.1377 9.83166 12.2657C10.1951 12.3936 10.5847 12.4596 10.9783 12.46H13.9727V9.91779C13.9733 9.2442 13.6582 8.59797 13.0967 8.12123C12.5352 7.64449 11.7732 7.37629 10.9783 7.37561ZM10.9783 14.1548H2.99412C1.34055 14.1548 0.000244141 15.2931 0.000244141 16.6974C0.000244141 18.1012 1.34055 19.2395 2.99412 19.2395H10.9788C12.6319 19.2395 13.9727 18.1012 13.9727 16.6974C13.9727 15.2931 12.6319 14.1548 10.9783 14.1548Z" fill="#272D38"/>
<path d="M29.9411 16.6974C29.9411 15.2931 28.6003 14.1548 26.9467 14.1548C25.2931 14.1548 23.9528 15.2931 23.9528 16.6974V19.2395H26.9467C27.7415 19.2389 28.5036 18.9707 29.0651 18.4939C29.6266 18.0172 29.9417 17.371 29.9411 16.6974ZM21.9569 16.6974V9.91779C21.9575 9.2442 21.6425 8.59797 21.0809 8.12123C20.5194 7.64449 19.7574 7.37629 18.9625 7.37561C17.3089 7.37561 15.9686 8.51396 15.9686 9.91779V16.6969C15.9686 18.1016 17.3089 19.24 18.9625 19.24C19.7574 19.2393 20.5194 18.9711 21.0809 18.4943C21.6425 18.0176 21.9575 17.3714 21.9569 16.6978" fill="#272D38"/>
<path d="M18.9626 32.7984C19.7575 32.7977 20.5195 32.5295 21.081 32.0528C21.6426 31.576 21.9577 30.9298 21.957 30.2562C21.9577 29.5826 21.6426 28.9364 21.081 28.4596C20.5195 27.9829 19.7575 27.7147 18.9626 27.714H15.9688V30.2562C15.9688 31.66 17.3091 32.7984 18.9626 32.7984ZM18.9626 26.0192H26.9473C28.6004 26.0192 29.9412 24.8809 29.9412 23.4766C29.9418 22.803 29.6268 22.1568 29.0652 21.6801C28.5037 21.2033 27.7417 20.9351 26.9468 20.9344H18.9626C17.3091 20.9344 15.9688 22.0728 15.9688 23.4766C15.9684 23.8101 16.0455 24.1404 16.1957 24.4487C16.346 24.7569 16.5664 25.0371 16.8444 25.2732C17.1224 25.5092 17.4526 25.6966 17.816 25.8245C18.1794 25.9525 18.5691 26.0185 18.9626 26.0188" fill="#272D38"/>
<path d="M1.51064e-06 23.4766C-0.000393626 23.8101 0.0767319 24.1404 0.226974 24.4487C0.377217 24.7569 0.597634 25.0371 0.875642 25.2732C1.15365 25.5092 1.4838 25.6966 1.84725 25.8245C2.2107 25.9525 2.60032 26.0185 2.99388 26.0188C3.78875 26.0181 4.55075 25.7499 5.11229 25.2732C5.67383 24.7965 5.98892 24.1502 5.98826 23.4766V20.9344H2.99388C1.3403 20.9344 1.51064e-06 22.0728 1.51064e-06 23.4766ZM7.98417 23.4766V30.2558C7.98417 31.66 9.32448 32.7984 10.9781 32.7984C11.7729 32.7977 12.5349 32.5295 13.0965 32.0528C13.658 31.576 13.9731 30.9298 13.9724 30.2562V23.4766C13.9728 23.1431 13.8957 22.8127 13.7454 22.5045C13.5951 22.1962 13.3747 21.916 13.0966 21.6799C12.8186 21.4439 12.4883 21.2565 12.1248 21.1286C11.7613 21.0007 11.3716 20.9347 10.9781 20.9344C9.32448 20.9344 7.98417 22.0728 7.98417 23.4766Z" fill="#272D38"/>
</svg>
