<svg width="140" height="37" viewBox="0 0 140 37" fill="none" xmlns="http://www.w3.org/2000/svg">
<path d="M21.0727 0.609253C9.4747 0.609253 0.0722656 8.57689 0.0722656 18.4053C0.0722656 28.2341 9.4747 36.2011 21.0727 36.2011C32.6719 36.2011 42.0733 28.2341 42.0733 18.4053C42.0733 8.57753 32.6719 0.610103 21.0724 0.610103L21.0727 0.609253ZM30.7033 26.2762C30.3271 26.799 29.5196 26.9647 28.9028 26.6438C23.9721 24.0916 17.765 23.5136 10.455 24.9289C9.75055 25.0649 9.04839 24.6909 8.8879 24.0937C8.72665 23.4966 9.16625 22.9015 9.87243 22.7655C17.872 21.2168 24.7339 21.8836 30.2695 24.7504C30.8864 25.0713 31.082 25.7534 30.7033 26.2762ZM33.2737 21.4306C32.7997 22.0834 31.7916 22.2895 31.0218 21.8879C25.3769 18.9476 16.7722 18.0961 10.0954 19.8136C9.22945 20.0352 8.31489 19.6217 8.05208 18.8891C7.79127 18.1553 8.27953 17.3818 9.14394 17.1587C16.7707 15.1976 26.2521 16.1476 32.7345 19.5233C33.5044 19.9249 33.7477 20.7792 33.2737 21.4308V21.4306ZM33.4944 16.3847C26.726 12.978 15.5592 12.6647 9.09704 14.3268C8.05935 14.5935 6.96197 14.097 6.6475 13.2177C6.33303 12.3379 6.91834 11.4086 7.95678 11.1412C15.3749 9.23291 27.7066 9.60161 35.4991 13.5218C36.4344 13.9912 36.7404 15.0128 36.1862 15.8027C35.6345 16.5936 34.4257 16.8544 33.4954 16.3847H33.4944ZM57.2074 17.0375C53.5812 16.3048 52.9367 15.7905 52.9367 14.7099C52.9367 13.689 54.0702 13.002 55.7579 13.002C57.3929 13.002 59.0129 13.5237 60.7132 14.5977C60.7633 14.6302 60.8285 14.6432 60.8912 14.6347C60.9564 14.6266 61.0116 14.5971 61.0492 14.5527L62.8196 12.4378C62.8924 12.3506 62.8723 12.2306 62.7745 12.1641C60.7508 10.7885 58.4738 10.1197 55.8106 10.1197C51.896 10.1197 49.1601 12.1107 49.1601 14.9594C49.1601 18.0142 51.5199 19.0959 55.5974 19.9309C59.0656 20.6081 59.6524 21.1755 59.6524 22.1896C59.6524 23.3138 58.4687 24.013 56.5629 24.013C54.4464 24.013 52.7185 23.4073 50.7876 21.992C50.74 21.9559 50.6748 21.941 50.6146 21.9431C50.5494 21.9474 50.4917 21.9729 50.4516 22.0133L48.4655 24.0151C48.3827 24.1001 48.3927 24.2234 48.488 24.2956C50.7349 25.9957 53.4984 26.8925 56.4826 26.8925C60.7006 26.8925 63.4265 24.9395 63.4265 21.9155C63.434 19.3639 61.631 17.9507 57.2149 17.0403L57.2074 17.0375ZM72.9709 14.0072C71.1428 14.0072 69.6431 14.6175 68.4043 15.8681V14.4604C68.4043 14.3493 68.299 14.2588 68.1686 14.2588H64.9211C64.7907 14.2588 64.6854 14.3493 64.6854 14.4604V30.1014C64.6854 30.2119 64.7907 30.3033 64.9211 30.3033H68.1686C68.299 30.3033 68.4043 30.2119 68.4043 30.1014V25.1648C69.6431 26.34 71.1428 26.9159 72.9709 26.9159C76.3688 26.9159 79.8094 24.6994 79.8094 20.4621C79.8144 16.2241 76.3739 14.0069 72.9734 14.0069L72.9709 14.0072ZM76.0328 20.4621C76.0328 22.6189 74.4655 24.1256 72.2186 24.1256C69.9992 24.1256 68.3241 22.5509 68.3241 20.4621C68.3241 18.3732 69.9992 16.7989 72.2186 16.7989C74.4279 16.7987 76.0328 18.339 76.0328 20.4619V20.4621ZM88.6241 14.0072C84.2481 14.0072 80.82 16.8624 80.82 20.5083C80.82 24.115 84.2255 26.9392 88.5714 26.9392C92.9624 26.9392 96.4005 24.0937 96.4005 20.4621C96.4005 16.8429 92.985 14.0076 88.6241 14.0076V14.0072ZM88.6241 24.1469C86.2969 24.1469 84.5415 22.5615 84.5415 20.4611C84.5415 18.3511 86.2367 16.8199 88.5714 16.8199C90.9136 16.8199 92.679 18.4046 92.679 20.5072C92.679 22.6168 90.9738 24.1469 88.6241 24.1469ZM105.744 14.2588H102.171V11.1633C102.171 11.0524 102.065 10.9619 101.935 10.9619H98.6875C98.5571 10.9619 98.4493 11.0524 98.4493 11.1633V14.2588H96.8895C96.7591 14.2588 96.6538 14.3493 96.6538 14.4604V16.825C96.6538 16.936 96.7591 17.0267 96.8895 17.0267H98.4493V23.1459C98.4493 25.6174 99.9013 26.8712 102.768 26.8712C103.931 26.8712 104.897 26.6672 105.807 26.2295C105.882 26.1954 105.927 26.1274 105.927 26.0552V23.8026C105.927 23.7346 105.885 23.6687 105.814 23.6326C105.744 23.5943 105.656 23.5922 105.584 23.6241C104.959 23.8897 104.355 24.013 103.678 24.013C102.637 24.013 102.171 23.6113 102.171 22.7145V17.0278H105.744C105.875 17.0278 105.98 16.9372 105.98 16.8261V14.4617C105.985 14.3506 105.88 14.26 105.747 14.26L105.744 14.2588ZM118.193 14.2709V13.8907C118.193 12.7723 118.699 12.2735 119.833 12.2735C120.51 12.2735 121.054 12.3874 121.663 12.5595C121.738 12.5795 121.816 12.5695 121.876 12.5315C121.939 12.4934 121.974 12.4325 121.974 12.3679V10.0494C121.974 9.96075 121.909 9.88234 121.806 9.8562C121.164 9.69405 120.342 9.52766 119.108 9.52766C116.111 9.52766 114.524 10.9587 114.524 13.6646V14.2469H112.964C112.834 14.2469 112.726 14.3374 112.726 14.4483V16.825C112.726 16.936 112.834 17.0267 112.964 17.0267H114.524V26.4632C114.524 26.5758 114.632 26.6651 114.762 26.6651H118.007C118.14 26.6651 118.245 26.5758 118.245 26.4632V17.0273H121.277L125.921 26.4632C125.395 27.4535 124.876 27.6511 124.168 27.6511C123.597 27.6511 122.992 27.5066 122.378 27.2197C122.32 27.1942 122.25 27.19 122.19 27.2049C122.127 27.224 122.075 27.2622 122.049 27.3133L120.949 29.3597C120.896 29.4575 120.941 29.5701 121.051 29.6211C122.2 30.1481 123.236 30.3734 124.517 30.3734C126.914 30.3734 128.241 29.4256 129.407 26.8797L135.039 14.5463C135.07 14.4842 135.059 14.4141 135.014 14.3591C134.972 14.3045 134.899 14.2715 134.821 14.2715H131.441C131.338 14.2715 131.248 14.3261 131.215 14.4067L127.752 22.7868L123.96 14.4011C123.925 14.3232 123.837 14.2715 123.74 14.2715H118.193V14.2709ZM110.975 14.2588H107.728C107.597 14.2588 107.49 14.3493 107.49 14.4604V26.4632C107.49 26.5758 107.597 26.6651 107.728 26.6651H110.975C111.106 26.6651 111.214 26.5758 111.214 26.4632V14.4613C111.214 14.3501 111.108 14.2596 110.975 14.2596V14.2588ZM109.37 8.79322C108.084 8.79322 107.041 9.67556 107.041 10.7655C107.041 11.8561 108.084 12.7395 109.37 12.7395C110.657 12.7395 111.698 11.8561 111.698 10.7655C111.698 9.67578 110.654 8.79322 109.37 8.79322ZM137.813 18.1182C136.529 18.1182 135.528 17.2437 135.528 16.1818C135.528 15.1199 136.542 14.2354 137.826 14.2354C139.109 14.2354 140.11 15.1097 140.11 16.1707C140.11 17.2326 139.097 18.1182 137.813 18.1182ZM137.826 14.4279C136.654 14.4279 135.769 15.2163 135.769 16.1818C135.769 17.1468 136.649 17.9246 137.813 17.9246C138.984 17.9246 139.869 17.1368 139.869 16.1707C139.869 15.2057 138.989 14.4279 137.826 14.4279ZM138.332 16.3698L138.979 17.1366H138.432L137.851 16.4332H137.352V17.1366H136.895V15.1041H137.963C138.523 15.1041 138.889 15.3458 138.889 15.7525C138.891 16.0857 138.663 16.2893 138.335 16.3698H138.332ZM137.946 15.4529H137.352V16.0957H137.946C138.242 16.0957 138.42 15.9727 138.42 15.774C138.42 15.5649 138.242 15.4529 137.946 15.4529Z" fill="#272D38"/>
</svg>
