<svg width="98" height="41" viewBox="0 0 98 41" fill="none" xmlns="http://www.w3.org/2000/svg">
<path fill-rule="evenodd" clip-rule="evenodd" d="M79.7073 17.4545C80.0815 18.0017 80.2039 18.6242 80.2443 19.324L80.2975 20.2567V26.7791L80.3517 27.7129C80.4603 29.2378 81.7874 30.3653 83.6007 30.4612L84.6968 30.5072V20.2567L84.7511 19.324C84.7961 18.632 84.9174 17.9978 85.2974 17.4467C85.6846 16.8815 86.2404 16.4126 86.9091 16.087C87.5778 15.7614 88.3358 15.5907 89.107 15.5919C89.8782 15.593 90.6355 15.7662 91.3028 16.0938C91.97 16.4214 92.5239 16.8921 92.9086 17.4585C93.2829 18.0056 93.3995 18.6398 93.4446 19.324L93.4988 20.2538V26.7791L93.5531 27.7129C93.6663 29.2456 94.983 30.3731 96.8021 30.4612L97.8981 30.5072V19.324C97.8981 17.3465 96.9714 15.4499 95.3216 14.0513C93.6719 12.6527 91.4342 11.8666 89.1007 11.8659C87.8517 11.8647 86.6168 12.0895 85.4786 12.5251C84.3403 12.9608 83.3248 13.5972 82.5 14.392C81.6748 13.5975 80.6593 12.9612 79.5211 12.5255C78.3829 12.0897 77.1482 11.8645 75.8993 11.8649C74.0721 11.8649 72.3766 12.3347 70.9722 13.1461C70.1152 12.3357 68.1979 11.8649 67.0972 11.8649V30.5072L68.1979 30.4612C70.039 30.3584 71.3695 29.2613 71.4411 27.7129L71.5 26.7791V20.2567L71.5543 19.324C71.6005 18.6202 71.716 18.0017 72.0913 17.4506C72.4789 16.8858 73.0345 16.417 73.7027 16.091C74.3709 15.765 75.1283 15.5933 75.8993 15.593C76.6709 15.5931 77.4289 15.7652 78.0973 16.0919C78.7656 16.4186 79.3209 16.8886 79.7073 17.4545ZM4.39931 30.4622L5.5 30.5072H21.9988L21.9446 29.5774C21.7956 28.0447 20.5147 26.925 18.7002 26.8251L17.5995 26.7791H7.70139L20.8982 15.592L20.8439 14.6631C20.7584 13.1147 19.4232 11.996 17.5995 11.9109L16.4988 11.8688L0 11.8649L0.0542839 12.7976C0.198656 14.3157 1.498 15.4589 3.29746 15.5469L4.39931 15.593H14.2975L1.10069 26.7801L1.15498 27.7129C1.26354 29.2495 2.57213 30.3624 4.39931 30.4612V30.4622ZM62.7788 14.5936C63.8004 15.4592 64.6107 16.4868 65.1636 17.6177C65.7165 18.7487 66.0011 19.9609 66.0011 21.1851C66.0011 22.4092 65.7165 23.6214 65.1636 24.7524C64.6107 25.8834 63.8004 26.911 62.7788 27.7765C60.7148 29.5241 57.9165 30.5058 54.9988 30.5058C52.0812 30.5058 49.2829 29.5241 47.2189 27.7765C42.9236 24.1365 42.9236 18.2336 47.2189 14.5936C48.2396 13.7284 49.4513 13.042 50.785 12.5736C52.1187 12.1053 53.5482 11.8641 54.9919 11.8639C56.4379 11.863 57.87 12.1038 59.2061 12.5723C60.5423 13.0409 61.7563 13.7281 62.7788 14.5946V14.5936ZM59.6661 17.2333C60.9033 18.2826 61.5983 19.7052 61.5983 21.1885C61.5983 22.6718 60.9033 24.0944 59.6661 25.1436C58.4279 26.1921 56.7492 26.781 54.9988 26.781C53.2485 26.781 51.5697 26.1921 50.3316 25.1436C49.0944 24.0944 48.3994 22.6718 48.3994 21.1885C48.3994 19.7052 49.0944 18.2826 50.3316 17.2333C51.5697 16.1849 53.2485 15.5959 54.9988 15.5959C56.7492 15.5959 58.4279 16.1849 59.6661 17.2333ZM31.9062 11.8639C33.35 11.8642 34.7795 12.1055 36.1133 12.5741C37.4469 13.0426 38.6587 13.7292 39.6792 14.5946C43.9757 18.2336 43.9757 24.1375 39.6792 27.7765C37.6153 29.5241 34.817 30.5058 31.8993 30.5058C28.9816 30.5058 26.1833 29.5241 24.1194 27.7765C19.824 24.1365 19.824 18.2336 24.1194 14.5936C25.14 13.7284 26.3518 13.042 27.6855 12.5736C29.0192 12.1053 30.4487 11.8641 31.8924 11.8639H31.9062ZM36.5666 17.2314C37.8041 18.2807 38.4994 19.7035 38.4994 21.187C38.4994 22.6706 37.8041 24.0934 36.5666 25.1427C35.3284 26.1911 33.6497 26.7801 31.8993 26.7801C30.1489 26.7801 28.4702 26.1911 27.232 25.1427C25.9948 24.0934 25.2998 22.6708 25.2998 21.1875C25.2998 19.7042 25.9948 18.2816 27.232 17.2324C28.4702 16.1839 30.1489 15.595 31.8993 15.595C33.6497 15.595 35.3284 16.1839 36.5666 17.2324V17.2314Z" fill="#272D38"/>
</svg>
